<?xml version="1.0" encoding="utf-8"?>
<!-- Generator: Adobe Illustrator 15.1.0, SVG Export Plug-In . SVG Version: 6.00 Build 0)  -->
<!DOCTYPE svg PUBLIC "-//W3C//DTD SVG 1.1//EN" "http://www.w3.org/Graphics/SVG/1.1/DTD/svg11.dtd">
<svg version="1.1" id="Ebene_1" xmlns="http://www.w3.org/2000/svg" xmlns:xlink="http://www.w3.org/1999/xlink" x="0px" y="0px"
	 width="178.008px" height="78.871px" viewBox="0 0 178.008 78.871" enable-background="new 0 0 178.008 78.871"
	 xml:space="preserve">
<path d="M9.316,26.659c-0.439,0.261-0.88,0.773-0.968,1.3c-0.088,0.646,0.176,1.21,0.66,1.6c1.45,1.04,2.902,2.079,4.352,3.118
	c0,0.213,0,0.432,0,0.65l-0.351-0.218L8.085,29.82c-0.617-0.475-1.319-1.087-1.144-1.956c0.088-0.432,0.399-0.821,0.835-0.992
	C8.215,26.659,8.79,26.568,9.316,26.659"/>
<polyline points="40.989,0 40.989,11.144 36.032,11.144 36.032,0 27.33,0 27.33,11.144 22.377,11.144 22.377,0 13.676,0 
	13.676,11.144 8.718,11.144 8.718,0 0.017,0 0.017,12.876 1.889,12.876 1.889,1.732 6.846,1.732 6.846,12.876 15.55,12.876 
	15.55,1.732 20.503,1.732 20.503,12.876 29.202,12.876 29.202,1.732 34.16,1.732 34.16,12.876 42.861,12.876 42.861,1.732 
	47.819,1.732 47.819,12.876 49.691,12.876 49.691,0 40.989,0 "/>
<path d="M18,41.3c-0.221-0.783-0.66-1.563-1.319-2.083c-1.847,0.437-3.738,0.869-5.582,1.343c-0.268,0.09-0.484,0.213-0.75,0.304
	c0.703-1.391,0.615-3.465-0.394-4.68l-4.046,3.379c1.054,1.429,2.067,2.905,3.118,4.329c0.309,0.352,0.75,0.479,1.144,0.65l6.246,1
	l1.67,0.256v-3.592L18,41.3"/>
<path d="M8.348,34.732c-0.207-0.095-0.679-0.323-0.679-0.323c0.387,0.593,0.776,1.148,1.163,1.656l0.591-0.489
	C9.16,35.188,8.514,34.813,8.348,34.732"/>
<path d="M6.789,35.188c0.344,0.55,0.774,1.068,1.163,1.618l0.664-0.555C8.175,35.624,7.396,35.529,6.789,35.188"/>
<path d="M7.755,36.962c-0.439-0.688-1.187-0.778-1.801-1.082c0.341,0.555,0.735,1.105,1.163,1.618l0.634-0.522
	C7.75,36.972,7.755,36.967,7.755,36.962"/>
<path d="M5.074,36.573c0.346,0.55,0.776,1.106,1.163,1.656l0.665-0.55C6.417,37.043,5.683,36.872,5.074,36.573"/>
<path d="M4.281,37.309l1.12,1.618l0.667-0.555C5.626,37.779,4.934,37.527,4.281,37.309"/>
<path d="M23.645,54.684l2,0.29l0.033-0.793C24.921,54.085,24.283,54.513,23.645,54.684"/>
<path d="M25.315,55.244c-0.662,0-1.101,0.434-1.671,0.607c0.593,0.081,1.272,0.205,1.951,0.252l0.038-0.859H25.315"/>
<path d="M24.302,56.587l-0.745,0.346l1.993,0.248l0.036-0.816C25.13,56.332,24.677,56.382,24.302,56.587"/>
<path d="M23.469,58.015l2.038,0.257l0.033-0.821C24.77,57.337,24.16,57.759,23.469,58.015"/>
<path d="M23.469,59.055c0.636,0.128,1.314,0.209,1.993,0.295l0.031-0.817C24.722,58.419,24.117,58.798,23.469,59.055"/>
<path d="M12.698,47.835c0.669,0.08,1.343,0.166,2.015,0.252l0.026-0.779C13.979,47.214,13.339,47.626,12.698,47.835"/>
<path d="M12.653,48.964l2.02,0.252l0.028-0.826C13.937,48.296,13.296,48.708,12.653,48.964"/>
<path d="M14.281,49.482c-0.617,0.043-1.099,0.342-1.67,0.561c0.688,0.129,1.376,0.213,2.021,0.262l0.029-0.821L14.281,49.482"/>
<path d="M14.238,50.564c-0.66,0-1.101,0.434-1.673,0.564l1.804,0.262l0.221,0.033l0.033-0.859
	C14.476,50.564,14.354,50.564,14.238,50.564"/>
<path d="M12.565,52.21l1.989,0.258l0.026-0.783C13.816,51.533,13.17,51.914,12.565,52.21"/>
<path d="M33.073,65.24l1.267-1.58l-0.671-0.433C33.167,63.75,33.246,64.556,33.073,65.24"/>
<path d="M34.083,65.841c0.392-0.508,0.864-1.063,1.213-1.575l-0.722-0.46C34.096,64.33,34.252,65.167,34.083,65.841"/>
<path d="M35.004,66.407c0.389-0.47,0.866-1.021,1.253-1.528l-0.745-0.475C35.057,64.958,35.14,65.723,35.004,66.407"/>
<path d="M35.887,67.057c0.427-0.546,0.895-1.054,1.284-1.595l-0.726-0.465C35.979,65.557,36.061,66.328,35.887,67.057"/>
<path d="M36.855,67.58l1.246-1.527l-0.695-0.446C36.938,66.126,36.855,66.891,36.855,67.58"/>
<path d="M40.984,49.568l0.133,0.086c0.612,0.17,1.229,0.303,1.844,0.346l-0.085-0.176l-0.311-2.425
	c-0.088-1.386-1.402-2.292-2.461-3.028l-12.705-8.495c-0.304-0.171-0.572-0.384-0.921-0.432c0.223-0.171,0.349-0.432,0.349-0.688
	c0-0.394-0.261-0.74-0.608-0.916l-3.694-1.946c-0.309-0.175-0.66-0.213-1.011-0.261l0.264-0.17c0.221-0.176,0.313-0.389,0.37-0.66
	c0.085-0.479,0.026-0.902-0.28-1.291c-0.308-0.347-0.626-0.589-1.341-0.508c-0.42,0.057-0.79,0.304-0.992,0.897
	c-0.088,0.261-0.045,0.607,0,0.826c-0.13-0.176-0.13-0.394-0.309-0.522c-0.878-0.475-1.711-0.954-2.548-1.343
	c-0.221-0.133-0.482-0.171-0.66-0.042c-0.221,0.128-0.266,0.389-0.354,0.607l-0.128-0.181c-1.761-0.992-3.562-1.941-5.32-2.895
	c0.13,0.171,0.306,0.347,0.351,0.603l0.043,2.51c1.056,0.783,2.197,1.434,3.251,2.255c0.221,0.128,0.354,0.346,0.444,0.607
	c0.128,0.389,0.04,0.864-0.176,1.172c-0.268,0.304-0.574,0.56-1.016,0.475c-0.923-0.351-1.713-1.001-2.503-1.646
	c0,0.56,0,1.172,0.042,1.775l6.946,4.765c0.835,0.778,1.277,1.731,1.407,2.814l-0.002,6.283v1.168l0.223,1.082
	c-0.531-0.864-1.367-1.774-2.288-2.256c-0.439-0.17-0.88-0.432-1.364-0.475c-0.017,0.6-0.038,1.201-0.066,1.809l-0.107,2.871
	c0,0.172-0.005,0.342-0.005,0.519l4.267,0.649c0.484,0.043,1.099,0.176,1.407-0.213l4.881-6.455h0.045
	c-0.045,0.176-0.181,0.305-0.181,0.479l0.968,0.124l0.306-0.171c-0.306,0.432-0.615,0.868-0.831,1.344
	c-0.309,0.825-0.221,1.864,0.261,2.601l3.82,6.108v0.085l-0.569-0.783c-0.838-1.125-2.02-1.775-3.251-2.158l-0.131,2.865
	l-0.085,2.061l-0.017,0.309l4.848,0.65l0.392-0.038c0.268-0.091,0.441-0.351,0.574-0.612l1.671-3.982
	c-0.396-0.606-0.745-1.215-1.056-1.815c-0.572-1.173-0.833-2.688-0.434-4.03l0.038-0.214l-2.764-1.604l-0.354-0.262l3.65,0.65
	c0.304,0.086,0.7,0.043,0.923-0.133c-0.398,0.736-0.65,1.42-0.78,2.326c-0.173,1.692,0.662,2.99,1.362,4.332l3.08,4.937
	c0.437,0.692,1.13,0.97,1.873,1.229h-0.043c-1.011-0.305-2.33-0.348-3.339,0.043c-0.745,0.304-1.402,0.9-1.836,1.59l4.433,2.818
	l2.193-2.72c0.572-0.825,1.455-1.478,1.455-2.554l-1.054-10.053C41.117,49.873,40.984,49.739,40.984,49.568 M16.666,31.59
	c-0.396,0-0.719-0.318-0.719-0.707c0-0.389,0.323-0.708,0.719-0.708s0.719,0.318,0.719,0.708
	C17.385,31.273,17.062,31.59,16.666,31.59z"/>
<path d="M0,18.557V54.38c0,13.502,11.153,24.49,24.862,24.49c13.708,0,24.859-10.986,24.859-24.49V18.557H0 M47.885,42.21
	L14.599,20.37c13.242,0,32.143,0,33.287,0C47.885,21.376,47.885,32.862,47.885,42.21z M1.837,54.38c0,0,0-2.453,0-6.032
	l36.578,24.323c-3.809,2.748-8.484,4.391-13.552,4.391C12.167,77.062,1.837,66.886,1.837,54.38z M39.897,71.518l-38.06-25.31
	c0-9.691,0-24.685,0-25.837c0.493,0,4.292,0,9.513,0l36.535,23.972c0,5.639,0,10.037,0,10.037
	C47.885,61.224,44.779,67.356,39.897,71.518z"/>
<path d="M70.393,62.791c0,0.713-0.042,2.871,2.786,2.871c1.785,0,2.914-0.84,2.914-2.115c0-1.344-0.959-1.571-2.914-2.031
	c-3.654-0.902-5.657-1.971-5.657-4.585c0-2.492,1.813-4.688,6.084-4.688c1.595,0,3.483,0.352,4.632,1.778
	c0.874,1.088,0.874,2.298,0.874,2.806h-3.17c-0.043-0.521-0.209-2.307-2.487-2.307c-1.528,0-2.525,0.82-2.525,2.055
	c0,1.4,1.12,1.657,3.332,2.198c2.658,0.631,5.273,1.343,5.273,4.29c0,2.725-2.292,4.922-6.545,4.922
	c-5.89,0-5.933-3.727-5.952-5.191h3.355"/>
<path d="M88.755,67.48c-1.016,0.271-1.932,0.332-2.439,0.332c-3.169,0-3.169-1.965-3.169-2.843v-5.8h-2.06v-2.051h2.06v-2.078
	l3.123-1.125v3.203h2.553v2.051H86.27v4.773c0.023,0.964,0.023,1.566,1.428,1.566c0.466,0,0.68-0.021,1.059-0.059v2.029"/>
<path d="M97.749,67.626c-0.108-0.65-0.108-1.129-0.108-1.442c-1.187,1.694-2.61,1.694-3.208,1.694c-1.549,0-2.25-0.441-2.678-0.836
	c-0.635-0.631-0.936-1.485-0.936-2.326c0-0.84,0.301-2.387,2.273-3.288c1.318-0.584,3.213-0.584,4.253-0.584
	c0-0.692-0.021-1.024-0.152-1.404c-0.274-0.774-1.101-0.878-1.399-0.878c-0.451,0-0.916,0.189-1.19,0.588
	c-0.237,0.355-0.237,0.688-0.237,0.939H91.29c0.02-0.569,0.086-1.693,1.211-2.491c0.978-0.692,2.234-0.854,3.25-0.854
	c0.894,0,2.763,0.144,3.826,1.357c0.721,0.859,0.744,2.117,0.744,2.597l0.02,4.247c0,0.902,0.066,1.805,0.257,2.682H97.749
	 M93.881,64.362c0,0.712,0.484,1.509,1.527,1.509c0.574,0,1.045-0.274,1.338-0.611c0.551-0.664,0.6-1.485,0.6-2.615
	C95.329,62.477,93.881,63.104,93.881,64.362z"/>
<path d="M110.819,52.51h3.166v13.397c0,0.627,0.047,1.319,0.085,1.719h-3.188l-0.086-1.528c-0.209,0.375-0.422,0.774-1.082,1.19
	c-0.787,0.508-1.613,0.547-2.078,0.547c-2.871,0-4.575-1.945-4.575-5.254c0-3.498,1.937-5.677,4.746-5.677
	c1.927,0,2.737,1.067,3.014,1.442L110.819,52.51 M108.413,65.824c0.916,0,1.662-0.542,2.004-1.191
	c0.465-0.877,0.513-1.965,0.513-2.491c0-2.074-0.916-3.203-2.345-3.203c-2.099,0-2.336,2.491-2.336,3.56
	C106.249,64.257,106.847,65.824,108.413,65.824z"/>
<path d="M123.616,67.48c-1.021,0.271-1.933,0.332-2.445,0.332c-3.166,0-3.166-1.965-3.166-2.843v-5.8h-2.06v-2.051h2.06v-2.078
	l3.123-1.125v3.203h2.549v2.051h-2.549v4.773c0.02,0.964,0.02,1.566,1.43,1.566c0.465,0,0.674-0.021,1.059-0.059V67.48"/>
<path d="M132.732,52.51h5.742c0.888,0,2.61,0,3.778,0.717c1.404,0.873,1.723,2.345,1.723,3.218c0,0.569-0.109,1.553-0.889,2.264
	c-0.108,0.123-0.854,0.799-1.746,1.025v0.043c2.34,0.418,3.252,2.094,3.252,3.684c0,1.779-1.059,2.972-2.25,3.56
	c-1.191,0.606-3.274,0.606-3.868,0.606h-5.742V52.51 M135.883,58.666h2.287c0.939,0,2.64,0,2.64-1.944c0-1.89-1.613-1.89-2.694-1.89
	h-2.23v3.834 M135.883,65.197h2.23c1.51,0,3.203,0,3.203-2.031c0-2.153-1.975-2.153-3.545-2.153h-1.889V65.197L135.883,65.197z"/>
<path d="M149.97,63.126c0,0.688,0,2.824,2.192,2.824c0.787,0,1.565-0.289,1.869-1.462h2.866c-0.038,0.498-0.146,1.4-1.017,2.298
	c-0.786,0.815-2.191,1.238-3.768,1.238c-0.912,0-2.658-0.171-3.777-1.32c-0.979-1.006-1.387-2.43-1.387-4.123
	c0-1.719,0.428-3.77,2.23-5.002c0.83-0.548,1.851-0.884,3.023-0.884c1.522,0,3.354,0.584,4.332,2.558
	c0.723,1.443,0.68,2.996,0.637,3.873H149.97 M153.965,61.181c0-0.483-0.037-2.368-1.869-2.368c-1.381,0-1.955,1.13-2.018,2.368
	H153.965z"/>
<path d="M159.851,59.649c0-0.499-0.085-2.032-0.146-2.635h2.955l0.066,2.026c0.398-0.901,1.102-2.179,3.654-2.051v2.786
	c-3.188-0.294-3.385,1.319-3.385,2.634v5.217h-3.146V59.649"/>
<path d="M167.909,58.937c0-0.043,0-1.191-0.066-1.923h3.02l0.086,1.591c0.299-0.48,1.148-1.848,3.493-1.848
	c2.099,0,2.99,1.264,3.265,1.994c0.237,0.649,0.305,1.19,0.305,3.16v5.715h-3.213v-6.573c0-0.441,0-0.816-0.172-1.153
	c-0.231-0.46-0.726-0.902-1.531-0.902c-0.676,0-1.291,0.314-1.633,0.822c-0.19,0.271-0.385,0.792-0.385,1.608v6.198h-3.166v-8.689"
	/>
</svg>
